<svg viewBox="0 0 32 28" fill="none" xmlns="http://www.w3.org/2000/svg">
    <path fill-rule="evenodd" clip-rule="evenodd"
          d="M15.4142 0.585787C16.1953 1.36684 16.1953 2.63317 15.4142 3.41421L6.82843 12H30C31.1046 12 32 12.8954 32 14C32 15.1046 31.1046 16 30 16H6.82843L15.4142 24.5858C16.1953 25.3668 16.1953 26.6332 15.4142 27.4142C14.6332 28.1953 13.3668 28.1953 12.5858 27.4142L0.589357 15.4178L0.587586 15.416L0.585786 15.4142L0.585777 15.4142C0.392503 15.2209 0.247056 14.9979 0.149437 14.7599C0.056884 14.5348 0.00422088 14.289 0.000246229 14.0315C0.000165213 14.0263 0.00010419 14.0211 6.31584e-05 14.0159C-6.15985e-05 14.0002 -1.53095e-06 13.9845 0.000243361 13.9687C0.00422352 13.7092 0.0576093 13.4618 0.151411 13.2353C0.249015 12.9991 0.393806 12.7778 0.585786 12.5858L0.589055 12.5825L12.5858 0.585787C13.3668 -0.195262 14.6332 -0.195262 15.4142 0.585787Z"
          fill="white" />
</svg>
